<svg role="img" viewBox="0 0 24 24" xmlns="http://www.w3.org/2000/svg"><path d="M19.539 0H0v24h24V3.772L19.539 0zm-8.452 2c.412 3.233.524 9.459.524 9.459s-.252-.112-.336-.098c-.084.014-.42.21-.602.028s-.882.126-1.05.336c-.168.21 0 .462 0 .63s-.182.252-.518.028-.168-.868-.168-.868.266-.364-.098-.868-.756.056-.714.336c.042.28.476.728.56.994.084.266-.098.28-.294.196-.196-.084-.658-.686-.658-.686s-.882-.49-.821.467c.448.373.737 2.026.737 2.026s-.14.588-.625.625-2.427 1.83-2.987 2.651c-.365.533-1.371 1.524-2.037 2.158V2h9.087zM22 22H10.29c-.197-1.924-.269-3.066 1.27-3.326 1.662-.28 3.249.691 4.667 1.046 1.419.355 1.606-.224 1.643-.336.037-.112.243-.485.597-.709.355-.224.784-.056 1.232-.019s.392-.485.392-.485l-.915-.653-.187.541-1.587.075s-.878-.037-1.251.504c-.747-.355-2.035-.429-2.614-.504-.579-.075-.709-.261-1.232-.504s-.747-1.102-.131-1.587c2.147-.317 1.307-2.24 1.307-2.24s-.84-1.4-.625-1.727c3.172-3.268 7.953-4.915 7.953-4.915s.42-.154 0-.49c-6.413 2.016-7.953 5.115-8.252 5.218-.299.103-.456-.112-.457-.597.026-.538-.405-8.017-.478-9.291h7.184L22 4.7V22z"/></svg>